<?xml version="1.0" encoding="utf-8"?>
<!-- Generator: Adobe Illustrator 27.0.0, SVG Export Plug-In . SVG Version: 6.00 Build 0)  -->
<svg version="1.1" id="Layer_1" xmlns="http://www.w3.org/2000/svg" xmlns:xlink="http://www.w3.org/1999/xlink" x="0px" y="0px"
	 viewBox="0 0 2679.39 785.92" style="enable-background:new 0 0 2679.39 785.92;" xml:space="preserve">
<style type="text/css">
	.st0{fill:#FFFFFF;}
</style>
<g>
	<g>
		<path class="st0" d="M1225.37,148.38h105.52l189.38,489.16h-99.93l-46.12-121.59h-192.17l-46.82,121.59H1036L1225.37,148.38z
			 M1348.36,436.98l-69.18-180.99h-2.79l-68.48,180.99H1348.36z"/>
		<path class="st0" d="M1646.04,283.95h96.88v75.47h-98.98v278.12h-89.45V373.39C1554.5,315.39,1585.95,283.95,1646.04,283.95z"/>
		<path class="st0" d="M1757.99,460.74c0-116.7,64.99-187.98,159.33-187.98c48.22,0,88.05,19.57,113.91,54.51V148.38h88.75v489.16
			h-81.06v-52.41c-25.86,40.53-68.48,63.59-121.59,63.59C1822.98,648.72,1757.99,576.74,1757.99,460.74z M2033.32,460.74
			c0-67.78-37.74-112.51-92.94-112.51c-55.9,0-90.84,44.72-90.84,112.51s34.94,111.81,90.84,111.81
			C1995.58,572.55,2033.32,528.53,2033.32,460.74z"/>
		<path class="st0" d="M2174.73,538.31c0-62.19,42.63-102.02,123.69-108.31l82.46-5.59c16.77-1.4,26.55-9.08,26.55-28.65
			c0-35.64-27.25-51.71-66.39-51.71c-44.72,0-67.78,20.97-72.68,53.81h-85.95c8.39-78.96,62.19-125.09,159.33-125.09
			c96.43,0,153.74,46.12,153.74,141.86v147.45h28.65v75.47h-35.64c-41.93,0-64.29-21.66-67.09-62.19
			c-22.36,51.01-68.48,73.37-122.29,73.37C2221.55,648.72,2174.73,602.6,2174.73,538.31z M2408.13,493.59v-13.98l-90.84,6.99
			c-38.43,2.8-53.11,21.66-53.11,46.82c0,27.95,19.57,44.02,53.11,44.02C2370.39,577.44,2408.13,541.11,2408.13,493.59z"/>
	</g>
	<g>
		<rect x="179.96" y="392.96" class="st0" width="244.58" height="244.58"/>
		<rect x="669.12" y="392.96" class="st0" width="244.58" height="244.58"/>
		<rect x="424.54" y="148.38" class="st0" width="244.58" height="244.58"/>
	</g>
</g>
</svg>
