<svg width="409" height="120" viewBox="0 0 409 120" fill="none" xmlns="http://www.w3.org/2000/svg">
<path d="M187.049 22.6497H203.156L232.064 97.3183H216.81L209.77 78.758H180.436L173.289 97.3183H158.142L187.049 22.6497ZM205.823 66.7035L195.263 39.076H194.837L184.384 66.7035H205.823Z" fill="white"/>
<path d="M251.262 43.344H266.051V54.8642H250.942V97.3183H237.288V56.9967C237.289 48.1432 242.09 43.344 251.262 43.344Z" fill="white"/>
<path d="M268.352 70.3304C268.352 52.5165 278.272 41.6359 292.673 41.6359C300.033 41.6359 306.113 44.6231 310.061 49.9566V22.6497H323.608V97.3183H311.235V89.3181C307.287 95.5049 300.781 99.0249 292.674 99.0249C278.272 99.0249 268.352 88.0374 268.352 70.3304ZM310.38 70.3304C310.38 59.984 304.619 53.1561 296.193 53.1561C287.66 53.1561 282.326 59.9825 282.326 70.3304C282.326 80.6783 287.66 87.3978 296.193 87.3978C304.619 87.3978 310.38 80.6783 310.38 70.3304Z" fill="white"/>
<path d="M331.965 82.1713C331.965 72.6782 338.473 66.5982 350.846 65.6381L363.433 64.7848C365.993 64.5711 367.486 63.3988 367.486 60.4115C367.486 54.9711 363.327 52.5181 357.352 52.5181C350.526 52.5181 347.006 55.7191 346.258 60.732H333.138C334.418 48.679 342.631 41.6375 357.459 41.6375C372.179 41.6375 380.927 48.6775 380.927 63.2919V85.7997H385.3V97.3199H379.86C373.459 97.3199 370.046 94.0136 369.619 87.8268C366.206 95.6133 359.165 99.0265 350.952 99.0265C339.112 99.025 331.965 91.9849 331.965 82.1713ZM367.593 75.3449V73.2109L353.727 74.2779C347.86 74.7053 345.62 77.5842 345.62 81.4248C345.62 85.6913 348.607 88.1443 353.727 88.1443C361.832 88.1443 367.593 82.5987 367.593 75.3449Z" fill="white"/>
<path d="M64.8045 59.984H27.4702V97.3183H64.8045V59.984Z" fill="white"/>
<path d="M139.473 59.984H102.139V97.3183H139.473V59.984Z" fill="white"/>
<path d="M102.139 22.6497H64.8047V59.984H102.139V22.6497Z" fill="white"/>
</svg>
